<?xml version="1.0" encoding="UTF-8" standalone="no"?>
<svg
        xmlns:dc="http://purl.org/dc/elements/1.1/"
        xmlns:cc="http://creativecommons.org/ns#"
        xmlns:rdf="http://www.w3.org/1999/02/22-rdf-syntax-ns#"
        xmlns:svg="http://www.w3.org/2000/svg"
        xmlns="http://www.w3.org/2000/svg"
        xmlns:sodipodi="http://sodipodi.sourceforge.net/DTD/sodipodi-0.dtd"
        xmlns:inkscape="http://www.inkscape.org/namespaces/inkscape"
        width="50"
        height="50"
        id="svg3021"
        version="1.1"
        inkscape:version="0.91 r13725"
        sodipodi:docname="delete.svg">
    <metadata
            id="metadata3055">
        <rdf:RDF>
            <cc:Work
                    rdf:about="">
                <dc:format>image/svg+xml</dc:format>
                <dc:type
                        rdf:resource="http://purl.org/dc/dcmitype/StillImage"/>
                <dc:title/>
            </cc:Work>
        </rdf:RDF>
    </metadata>
    <sodipodi:namedview
            pagecolor="#ffffff"
            bordercolor="#666666"
            borderopacity="1"
            objecttolerance="10"
            gridtolerance="10"
            guidetolerance="10"
            inkscape:pageopacity="0"
            inkscape:pageshadow="2"
            inkscape:window-width="1366"
            inkscape:window-height="705"
            id="namedview3053"
            showgrid="false"
            inkscape:zoom="6.675"
            inkscape:cx="62.008752"
            inkscape:cy="20.727428"
            inkscape:window-x="-8"
            inkscape:window-y="-8"
            inkscape:window-maximized="1"
            inkscape:current-layer="svg3021"/>
    <defs
            id="defs3023">
        <linearGradient
                id="svg_2"
                y2="1">
            <stop
                    stop-color="#e5e5e5"
                    offset="0"
                    id="stop3026"/>
            <stop
                    stop-color="#999"
                    offset="1"
                    id="stop3028"/>
        </linearGradient>
        <linearGradient
                id="svg_5"
                y2="1">
            <stop
                    stop-color="#007f7f"
                    offset="0"
                    id="stop3031"/>
            <stop
                    stop-color="#ccc"
                    offset="1"
                    id="stop3033"/>
        </linearGradient>
    </defs>
    <path
            inkscape:connector-curvature="0"
            style="fill:#ffffff;fill-rule:evenodd;stroke-width:5"
            id="path3037"
            d="m 38.126985,12.682075 c 0.824341,0 1.288003,0.03435 1.391118,0.103048 0.103071,0.06869 0.154561,5.581488 0.154561,16.538731 0,10.956878 -0.01716,16.469425 -0.05148,16.53873 -0.06864,0.0687 -0.532379,0.120215 -1.391119,0.154566 -0.893025,0.03435 -1.373847,0 -1.442542,-0.103048 -0.06864,-0.06869 -0.120219,-5.581487 -0.154572,-16.538731 -0.03432,-10.922469 0,-16.435379 0.10307,-16.538731 0.06875,-0.103037 0.532379,-0.154565 1.391108,-0.154565 z"/>
    <path
            inkscape:connector-curvature="0"
            style="fill:#ffffff;fill-rule:evenodd;stroke-width:5"
            id="path3039"
            d="m 11.747938,12.836494 c 0.103071,-0.103037 0.566732,-0.137384 1.391119,-0.103037 0.824341,0.03434 1.270865,0.08587 1.33956,0.154566 0.103071,0.06869 0.13738,5.598632 0.103071,16.589798 -0.03432,10.991167 -0.08591,16.521709 -0.154561,16.589799 -0.06864,0.0687 -0.532379,0.08587 -1.391119,0.05151 -0.858683,-0.03435 -1.322412,-0.08587 -1.391118,-0.154566 -0.06875,-0.0687 -0.08591,-5.598631 -0.05148,-16.589799 0.03432,-10.956878 0.08591,-16.469424 0.154573,-16.53873 z"/>
    <path
            inkscape:connector-curvature="0"
            style="fill:#cccccc;fill-rule:evenodd;stroke-width:5"
            id="path3041"
            d="m 7.1627573,7.2722724 0,-1.9062943 36.4771327,0 0,1.9062943 c 0,1.2708635 -0.03432,1.9062953 -0.103071,1.9062953 l -0.10307,0 c 0.03432,-0.034342 0.05148,-0.051524 0.05148,-0.051524 l 0,-0.051524 -36.1682882,0 0,0.051524 0.051479,0.051524 -0.2060854,0 0,-1.9062953 z"/>
    <path
            inkscape:connector-curvature="0"
            style="fill:#ffffff;fill-rule:evenodd;stroke-width:5"
            id="path3043"
            d="m 19.321809,12.990914 c 0.824342,0 1.288003,0.03435 1.391107,0.103048 0.06864,0.0687 0.12022,5.581488 0.154573,16.538731 0.03432,10.956879 0.01716,16.469425 -0.05148,16.538731 -0.06875,0.06869 -0.532379,0.120215 -1.391118,0.154566 -0.858695,0.03435 -1.322412,0.01717 -1.391108,-0.05152 -0.06864,-0.0687 -0.120219,-5.581487 -0.154572,-16.538731 -0.03432,-10.956878 0,-16.486447 0.103071,-16.589798 0.06864,-0.103049 0.515219,-0.154566 1.33956,-0.154566 z"/>
    <path
            style="fill:#cccccc;fill-rule:evenodd;stroke-width:5"
            inkscape:connector-curvature="0"
            id="path3045"
            d="m 32.356303,4.8507991 0,0.3091314 0.05148,0.051513 0,0.051524 -1.597215,0 c -1.099123,0 -1.665911,-0.1373847 -1.700197,-0.4121675 C 29.076051,4.6103672 28.95581,4.3527665 28.749724,4.0779837 28.612334,3.803202 28.440591,3.5971177 28.234505,3.4597207 28.028431,3.2879862 27.753639,3.1334205 27.410163,2.9960235 27.10103,2.8586388 26.688859,2.7899403 26.173584,2.7899403 c -0.515208,0 -0.927379,0.068695 -1.236568,0.2060832 -0.343487,0.137397 -0.618268,0.2919505 -0.824353,0.4636972 -0.240428,0.1717345 -0.429342,0.37783 -0.566732,0.618263 C 23.374187,4.284068 23.27115,4.5416809 23.236797,4.8508002 23.168157,5.125583 22.60137,5.2629677 21.536601,5.2629677 l -1.597215,0 0.05148,-0.6182507 C 20.059506,4.2668992 20.162598,3.8890693 20.3,3.5112504 20.471732,3.099084 20.677829,2.7556027 20.918256,2.4808211 c 0.240439,-0.3434813 0.515219,-0.6354318 0.824353,-0.8758648 0.274781,-0.240433 0.652598,-0.4980348 1.133464,-0.77281646 0.480866,-0.20608431 0.961732,-0.37783109 1.442554,-0.5152158 0.446513,-0.13739697 1.064769,-0.2060832 1.854735,-0.2060832 0.755647,0 1.391119,0.0686951 1.906293,0.2060832 0.515219,0.13738471 0.996085,0.32630026 1.442554,0.56673326 0.446513,0.240433 0.858683,0.5323835 1.236568,0.8758648 0.377829,0.3778299 0.686951,0.7556476 0.92739,1.1334654 0.240427,0.3778188 0.395,0.7556488 0.463695,1.1334665 0.137379,0.3434802 0.206085,0.6182507 0.206085,0.8243462 z"/>
    <path
            inkscape:connector-curvature="0"
            style="fill:#ffffff;fill-rule:evenodd;stroke-width:5"
            id="path3047"
            d="m 31.841975,12.836494 c 0.824342,-0.03434 1.288004,0 1.391119,0.103049 0.10307,0.06869 0.154561,5.581487 0.154561,16.53873 0,10.956879 -0.01716,16.469425 -0.05148,16.538731 -0.06875,0.103037 -0.532379,0.154566 -1.391118,0.154566 -0.858695,0 -1.322412,-0.01717 -1.391107,-0.05152 -0.103071,-0.0687 -0.154573,-5.581487 -0.154573,-16.538731 0,-10.956878 0.03432,-16.486446 0.103071,-16.589798 0.06875,-0.06869 0.515208,-0.120215 1.339561,-0.154566 z"/>
    <path
            inkscape:connector-curvature="0"
            style="fill:#ffffff;fill-rule:evenodd;stroke-width:5"
            id="path3049"
            d="m 25.555751,12.990914 c 0.824342,0 1.288003,0.03435 1.391107,0.103048 0.103071,0.0687 0.154573,5.581488 0.154573,16.538731 0,10.956879 -0.01716,16.469425 -0.05148,16.538731 -0.06864,0.06869 -0.532379,0.120215 -1.391107,0.154566 -0.858695,0.03435 -1.322423,0.01717 -1.391118,-0.05152 -0.103071,-0.0687 -0.154573,-5.581487 -0.154573,-16.538731 0,-10.956878 0.03432,-16.486447 0.103071,-16.589798 0.06875,-0.103049 0.515208,-0.154566 1.339561,-0.154566 z"/>
    <path
            inkscape:connector-curvature="0"
            style="fill:#cccccc;fill-rule:evenodd;stroke-width:5"
            id="path3051"
            d="m 7.3171849,9.1267705 0,-0.051557 36.1682881,0 0,0.051557 c 0,0 -0.01716,0.017149 -0.05159,0.051435 l -0.102959,0 c -0.06864,0 -0.05159,0.2060954 0.05148,0.6182874 0.13739,0.3777811 0.206096,6.3199051 0.206096,17.8263731 0,11.472058 -0.06875,17.448228 -0.206096,17.929726 -0.137402,0.446479 -0.343498,0.89296 -0.618167,1.339562 -0.274792,0.412192 -0.566733,0.789973 -0.875944,1.133466 -0.343487,0.343493 -0.721271,0.635431 -1.133465,0.875816 -0.412193,0.240505 -0.87581,0.446601 -1.390995,0.618287 -0.480889,0.171686 -5.083452,0.25765 -13.807802,0.25765 -8.689953,0 -13.207163,-0.03441 -13.550048,-0.103104 -0.343487,-0.0687 -0.738531,-0.188951 -1.18501,-0.360638 C 10.408778,49.141946 10.013723,48.918585 9.6359499,48.643912 9.2581649,48.369117 8.9489649,48.094323 8.7085709,47.819528 8.4680653,47.544734 8.2276825,47.20124 7.9872996,46.78905 7.7467942,46.376858 7.5579689,45.930377 7.4205675,45.449488 7.283166,45.003007 7.2144709,39.112437 7.2144709,27.777533 c 0,-11.334659 0.05148,-17.259761 0.154539,-17.775304 L 7.52356,9.2809541 l 0.051591,-0.051558 0,-0.051557 -0.2060965,0 C 7.3346233,9.1435527 7.3174635,9.126404 7.3174635,9.126404 Z M 38.126985,12.68171 c 0.824375,0 1.288003,0.03429 1.391118,0.102982 0.102959,0.06869 0.154539,5.581486 0.154539,16.538729 0,10.95688 -0.01716,16.469425 -0.05159,16.538732 -0.06875,0.06869 -0.532323,0.120254 -1.391107,0.154541 -0.89297,0.03441 -1.373858,0 -1.442554,-0.102981 -0.06875,-0.06869 -0.120252,-5.581488 -0.154539,-16.538731 -0.03443,-10.92259 0,-16.435379 0.10296,-16.538731 0.06875,-0.102981 0.532445,-0.154541 1.391118,-0.154541 z m -26.379047,0.154541 c 0.102959,-0.102992 0.566732,-0.137397 1.391119,-0.102992 0.824263,0.03429 1.270865,0.08584 1.339438,0.154541 0.10307,0.06869 0.137401,5.598632 0.10307,16.589798 -0.03443,10.99129 -0.0858,16.521709 -0.154539,16.589799 -0.06875,0.06869 -0.532445,0.08584 -1.391118,0.05156 -0.858673,-0.03441 -1.322412,-0.08584 -1.391118,-0.154541 -0.06864,-0.06869 -0.0858,-5.598754 -0.05148,-16.589799 0.03432,-10.956878 0.0858,-16.469424 0.154539,-16.53873 z m 20.092823,0 c 0.824375,-0.03429 1.288003,0 1.391107,0.102982 0.102959,0.06869 0.15455,5.581488 0.15455,16.538731 0,10.956878 -0.01716,16.469424 -0.05159,16.53873 -0.06864,0.103116 -0.532323,0.154663 -1.390996,0.154663 -0.858795,0 -1.322423,-0.01727 -1.391118,-0.05155 -0.103071,-0.06869 -0.154539,-5.581488 -0.154539,-16.538731 0,-10.956879 0.03432,-16.486447 0.102959,-16.589798 0.06875,-0.06869 0.515175,-0.120134 1.339561,-0.154542 z m -12.520167,0.154542 c 0.824376,0 1.288004,0.03441 1.391108,0.103104 0.06875,0.06869 0.120141,5.581487 0.15455,16.53873 0.03432,10.956879 0.01716,16.469424 -0.05159,16.538731 -0.06875,0.0687 -0.532323,0.120133 -1.391119,0.154541 -0.858672,0.03429 -1.3223,0.01715 -1.390995,-0.05156 -0.06875,-0.06869 -0.120253,-5.581487 -0.154539,-16.538731 -0.03443,-10.956879 0,-16.486447 0.102959,-16.589798 0.06875,-0.102993 0.515185,-0.154541 1.339561,-0.154541 z m 6.234054,0 c 0.824386,0 1.288014,0.03441 1.391118,0.103104 0.10296,0.06869 0.154539,5.581487 0.154539,16.53873 0,10.956879 -0.01716,16.469424 -0.05159,16.538731 -0.06875,0.0687 -0.532323,0.120133 -1.390995,0.154541 -0.858673,0.03429 -1.322424,0.01715 -1.391119,-0.05156 -0.102959,-0.06869 -0.154539,-5.581487 -0.154539,-16.538731 0,-10.956879 0.03432,-16.486447 0.102959,-16.589798 0.06864,-0.102993 0.515297,-0.154541 1.339561,-0.154541 z"/>
</svg>
