<?xml version="1.0" encoding="UTF-8" standalone="no"?>
<!-- Created with Inkscape (http://www.inkscape.org/) -->

<svg
        xmlns:dc="http://purl.org/dc/elements/1.1/"
        xmlns:cc="http://creativecommons.org/ns#"
        xmlns:rdf="http://www.w3.org/1999/02/22-rdf-syntax-ns#"
        xmlns:svg="http://www.w3.org/2000/svg"
        xmlns="http://www.w3.org/2000/svg"
        xmlns:sodipodi="http://sodipodi.sourceforge.net/DTD/sodipodi-0.dtd"
        xmlns:inkscape="http://www.inkscape.org/namespaces/inkscape"
        width="240"
        height="80"
        id="svg2"
        version="1.1"
        inkscape:version="0.91 r13725"
        sodipodi:docname="logo.svg">
    <defs
            id="defs4"/>
    <sodipodi:namedview
            id="base"
            pagecolor="#ffffff"
            bordercolor="#666666"
            borderopacity="1.0"
            inkscape:pageopacity="0.0"
            inkscape:pageshadow="2"
            inkscape:zoom="2"
            inkscape:cx="35.5"
            inkscape:cy="54.849315"
            inkscape:document-units="px"
            inkscape:current-layer="layer1"
            showgrid="false"
            inkscape:window-width="1366"
            inkscape:window-height="705"
            inkscape:window-x="-8"
            inkscape:window-y="-8"
            inkscape:window-maximized="1"/>
    <metadata
            id="metadata7">
        <rdf:RDF>
            <cc:Work
                    rdf:about="">
                <dc:format>image/svg+xml</dc:format>
                <dc:type
                        rdf:resource="http://purl.org/dc/dcmitype/StillImage"/>
                <dc:title/>
            </cc:Work>
        </rdf:RDF>
    </metadata>
    <g
            inkscape:label="Layer 1"
            inkscape:groupmode="layer"
            id="layer1"
            transform="translate(0,-972.36218)">
        <rect
                style="fill:#000000;fill-opacity:0;stroke:#ffffff;stroke-width:2.1285851;stroke-miterlimit:4;stroke-dasharray:none;stroke-opacity:1"
                id="rect3799"
                width="234.59871"
                height="74.098709"
                x="2.9506447"
                y="975.31281"
                rx="8.9088125"
                ry="3.0040016"/>
        <path
                inkscape:connector-curvature="0"
                d="m 171.60296,1014.7992 c 1.80733,10e-5 3.17446,1.1479 4.10129,3.4436 1.85366,4.3043 3.17445,6.4565 3.96231,6.4565 0.60243,0 1.22807,-0.3586 1.87692,-1.0761 13.02232,-16.1414 25.07139,-29.19835 36.14715,-39.17004 2.87319,-2.58267 7.43803,-3.874 13.69439,-3.874 1.48291,0 2.47924,0.10768 2.9891,0.3228 0.50966,0.21524 0.76458,0.48438 0.76463,0.80707 -8e-5,0.50223 -0.76474,1.48872 -2.29398,2.95925 -17.88814,16.64402 -34.47915,34.22022 -49.77191,52.72942 -1.06592,1.2914 -3.24403,1.9369 -6.53438,1.9369 -3.33667,0 -5.30626,-0.1075 -5.90875,-0.3227 -1.5757,-0.5381 -3.42939,-3.2822 -5.5611,-8.2325 -2.40981,-5.488 -3.61476,-8.9317 -3.61472,-10.3306 -1e-5,-1.5065 1.62197,-2.9593 4.86601,-4.3584 1.9927,-0.8609 3.7537,-1.2912 5.28304,-1.2913"
                id="path12"
                style="fill:#ffffff"/>
        <text
       xml:space="preserve"
       style="font-style:normal;font-variant:normal;font-weight:normal;font-stretch:normal;font-size:75.29627228px;line-height:125%;font-family:Forte;-inkscape-font-specification:Forte;letter-spacing:0px;word-spacing:0px;fill:#ffffff;fill-opacity:1;stroke:none"
       x="4.6796846"
       y="1035.4653"
       id="text2985"
       sodipodi:linespacing="125%"><tspan
         sodipodi:role="line"
         id="tspan2987"
         x="4.6796846"
         y="1035.4653">Lials</tspan></text>
    </g>
</svg>
