<?xml version="1.0" encoding="UTF-8" standalone="no"?>
<!-- Created with Inkscape (http://www.inkscape.org/) -->

<svg
        xmlns:dc="http://purl.org/dc/elements/1.1/"
        xmlns:cc="http://creativecommons.org/ns#"
        xmlns:rdf="http://www.w3.org/1999/02/22-rdf-syntax-ns#"
        xmlns:svg="http://www.w3.org/2000/svg"
        xmlns="http://www.w3.org/2000/svg"
        xmlns:sodipodi="http://sodipodi.sourceforge.net/DTD/sodipodi-0.dtd"
        xmlns:inkscape="http://www.inkscape.org/namespaces/inkscape"
        width="50"
        height="50"
        id="svg2"
        version="1.1"
        inkscape:version="0.91 r13725"
        sodipodi:docname="mobilelogo.svg">
    <defs
            id="defs4"/>
    <sodipodi:namedview
            id="base"
            pagecolor="#ffffff"
            bordercolor="#666666"
            borderopacity="1.0"
            inkscape:pageopacity="0.0"
            inkscape:pageshadow="2"
            inkscape:zoom="11.313708"
            inkscape:cx="42.027903"
            inkscape:cy="29.006064"
            inkscape:document-units="px"
            inkscape:current-layer="layer1"
            showgrid="false"
            inkscape:window-width="1366"
            inkscape:window-height="705"
            inkscape:window-x="-8"
            inkscape:window-y="-8"
            inkscape:window-maximized="1"/>
    <metadata
            id="metadata7">
        <rdf:RDF>
            <cc:Work
                    rdf:about="">
                <dc:format>image/svg+xml</dc:format>
                <dc:type
                        rdf:resource="http://purl.org/dc/dcmitype/StillImage"/>
                <dc:title></dc:title>
            </cc:Work>
        </rdf:RDF>
    </metadata>
    <g
            inkscape:label="Layer 1"
            inkscape:groupmode="layer"
            id="layer1"
            transform="translate(0,-1002.3622)">
        <rect
                style="fill:none;fill-opacity:1;stroke:#ffffff;stroke-width:1.14136446;stroke-miterlimit:4;stroke-dasharray:none;stroke-opacity:1"
                id="rect3799"
                width="36.05584"
                height="35.485157"
                x="0.91730171"
                y="1012.1469"
                rx="1.3692091"
                ry="1.4385874"/>
        <path
                inkscape:connector-curvature="0"
                d="m 15.993122,1024.3873 c 0.958866,10e-5 1.68418,0.6091 2.175909,1.827 0.983439,2.2836 1.684174,3.4255 2.102165,3.4255 0.31961,0 0.651536,-0.1903 0.995777,-0.5709 6.908879,-8.5636 13.301399,-15.4909 19.177549,-20.7814 1.524343,-1.3701 3.946176,-2.0553 7.265435,-2.0553 0.786743,0 1.315337,0.057 1.585834,0.1713 0.270401,0.1142 0.405642,0.2569 0.40567,0.4281 -4.6e-5,0.2665 -0.405727,0.7899 -1.217043,1.57 -9.490399,8.8304 -18.292608,18.1553 -26.406043,27.9752 -0.565512,0.6851 -1.721092,1.0277 -3.466758,1.0277 -1.770233,0 -2.815186,-0.057 -3.134826,-0.1713 -0.835974,-0.2854 -1.819437,-1.7413 -2.950392,-4.3677 -1.278505,-2.9116 -1.917784,-4.7386 -1.917756,-5.4809 -1.1e-5,-0.7992 0.860515,-1.5699 2.581613,-2.3122 1.057206,-0.4567 1.991493,-0.6851 2.802866,-0.6851"
                id="path12"
                style="fill:#ffffff;fill-opacity:1"/>
    </g>
</svg>
