<svg xmlns="http://www.w3.org/2000/svg" width="19" height="19"><path fill="none" d="M22.786 3.934l4 5.432-4.386 5.976h1.502l3.641-4.945 3.644 4.945h1.501l-4.387-5.976 4.002-5.432h-1.5l-3.262 4.432-3.259-4.432z"/><g fill="#fff"><path d="M7.073 5.261c-1.055 1.28-5.474 6.477-5.082 9.991.272.346.573.67.891.974-.046-2.69 3.11-5.57 5.574-7.742L7.073 5.26z"/><path d="M7.073 5.261c-1.055 1.28-5.474 6.477-5.082 9.991.272.346.573.67.891.974-.046-2.69 3.11-5.57 5.574-7.742L7.073 5.26z"/><path d="M4.48 1.364a9.6 9.6 0 0 0-1.534 1.152c1.516.288 3.036 1.622 3.87 2.727.726 1.135 1.12 2.175 1.632 3.25a47.4 47.4 0 0 1 1.082-.9l-.002-4.664c-1.13-.701-2.996-1.625-5.03-1.565-.005.003-.014-.002-.018 0z"/><path d="M4.48 1.364a9.6 9.6 0 0 0-1.534 1.152c1.516.288 3.036 1.622 3.87 2.727.726 1.135 1.12 2.175 1.632 3.25a47.4 47.4 0 0 1 1.082-.9l-.002-4.664c-1.13-.701-2.996-1.625-5.03-1.565-.005.003-.014-.002-.018 0zm7.446 3.901c1.05 1.28 5.456 6.482 5.065 9.999a9.65 9.65 0 0 1-.889.975c.046-2.692-3.1-5.574-5.556-7.75l1.38-3.224z"/><path d="M11.926 5.265c1.05 1.28 5.456 6.482 5.065 9.999a9.65 9.65 0 0 1-.889.975c.046-2.692-3.1-5.574-5.556-7.75l1.38-3.224z"/><path d="M14.51 1.364c.55.332 1.06.722 1.529 1.153-1.51.288-3.026 1.623-3.857 2.73-.723 1.135-1.117 2.177-1.628 3.252a44.926 44.926 0 0 0-1.078-.9l.002-4.668c1.126-.703 2.986-1.627 5.014-1.567.004.003.014-.002.018 0z"/><path d="M14.51 1.364c.55.332 1.06.722 1.529 1.153-1.51.288-3.026 1.623-3.857 2.73-.723 1.135-1.117 2.177-1.628 3.252a44.926 44.926 0 0 0-1.078-.9l.002-4.668c1.126-.703 2.986-1.627 5.014-1.567.004.003.014-.002.018 0z"/></g></svg>