<svg xmlns="http://www.w3.org/2000/svg" width="378.953" height="378.953" viewBox="0 0 100.265 100.265">
    <path id="back-line" style="fill:#fff;fill-opacity:1;stroke:#fff;stroke-width:.298533" d="M67.734 144.246c11.447-2.655 23.028-4.672 34.61-6.634 6.448-1.078 12.91-2.04 19.405-2.768l6.923-5.175c-6.767 1.086-13.542 2.124-20.28 3.39-11.21 1.97-22.43 3.873-33.642 5.822l-7.016 5.365z" transform="translate(-41.007 -70.139)" />
    <text xml:space="preserve" style="font-style:normal;font-weight:400;font-size:35.824px;line-height:1.25;font-family:sans-serif;fill:#fff;fill-opacity:1;stroke:none;stroke-width:.298533" x="60.013" y="127.601" transform="translate(-41.007 -70.139)"><tspan x="60.013" y="127.601" style="font-style:normal;font-variant:normal;font-weight:400;font-stretch:normal;font-size:35.824px;font-family:'MV Boli';-inkscape-font-specification:'MV Boli';fill:#fff;fill-opacity:1;stroke-width:.298533">JPI</tspan></text>
    <text id="front-text" xml:space="preserve" style="font-style:normal;font-weight:400;font-size:35.824px;line-height:1.25;font-family:sans-serif;fill-opacity:1;stroke:none;stroke-width:.298533" x="58.012" y="126.405" transform="translate(-41.007 -70.139)"><tspan x="58.012" y="126.405" style="font-style:normal;font-variant:normal;font-weight:400;font-stretch:normal;font-size:35.824px;font-family:'MV Boli';-inkscape-font-specification:'MV Boli';fill:inherit;fill-opacity:1;stroke-width:.298533">JPI</tspan></text>
    <path id="front-line" style="fill-opacity:1;stroke-width:.298533" d="M66.08 142.83c11.448-2.654 23.03-4.67 34.611-6.633 6.448-1.079 12.91-2.04 19.406-2.768l6.922-5.175c-6.767 1.086-13.542 2.124-20.28 3.39-11.21 1.97-22.43 3.873-33.642 5.822l-7.016 5.365z" transform="translate(-41.007 -70.139)" />
</svg>
