<svg xmlns="http://www.w3.org/2000/svg" width="512" height="512" xml:space="preserve"><text transform="translate(168.783 543.81)" fill="#FF0" font-family="'Verdana-Bold'" font-size="20">simpleicon.com</text><text transform="translate(9.193 567.81)" fill="#FF0" font-family="'Verdana'" font-size="20">Collection Of Flat Icon, Symbols And Glyph Icons</text><g style="fill:#fff"><path d="M265.229 364.383c-5.207-3.826-5.758-9.575-5.758-9.575l-1.951-12.473h-62.204l-1.957 12.473s-.544 5.749-5.748 9.575c-5.198 3.83-9.306 7.113-5.198 7.669 3.955.531 41.256.048 44.008 0 2.759.048 40.052.531 44.011 0 4.099-.556-.01-3.831-5.203-7.669zM120.538 259.694c0-5.77-4.681-10.451-10.452-10.451H60.453c-5.771 0-10.453 4.681-10.453 10.451v109.718c0 5.777 4.682 10.453 10.453 10.453h49.637c5.768 0 10.452-4.676 10.452-10.453V259.694h-.004zm-40.453 1.308h10.451c.722 0 1.306.583 1.306 1.3 0 .724-.584 1.312-1.306 1.312H80.085a1.313 1.313 0 0 1-1.308-1.312c.001-.725.587-1.3 1.308-1.3zm4.79 112.683a5.227 5.227 0 1 1 5.225-5.227 5.222 5.222 0 0 1-5.225 5.227zm29.134-14.717H56.531v-87.521h57.479v87.521zM447.343 189.137H339.846c-8.095 0-14.657 6.558-14.657 14.655v153.854c0 8.096 6.563 14.662 14.657 14.662h107.497c8.1 0 14.657-6.566 14.657-14.662V203.789c-.004-8.097-6.561-14.652-14.657-14.652zm-74.795 175.016c-4.047 0-7.334-3.274-7.334-7.318a7.334 7.334 0 0 1 7.334-7.33c4.04 0 7.315 3.282 7.315 7.33a7.314 7.314 0 0 1-7.315 7.318zm21.043 0c-4.04 0-7.323-3.274-7.323-7.318a7.324 7.324 0 1 1 14.649 0 7.314 7.314 0 0 1-7.326 7.318zm21.063 0a7.318 7.318 0 0 1-7.327-7.318 7.325 7.325 0 1 1 7.327 7.318zm38.185-21.167H334.35V201.954h118.489v141.032zM358.547 176.778h18.017v-32.629c0-6.639-5.379-12.014-12.014-12.014H88.287c-6.633 0-12.014 5.375-12.014 12.014v92.739h18.021v-86.736h264.253v26.626zM132.899 294.287v36.034H312.83v-36.034H132.899zm93.517 26.257a8.244 8.244 0 0 1-8.24-8.24c0-4.546 3.692-8.239 8.24-8.239a8.243 8.243 0 0 1 8.24 8.239c0 4.546-3.691 8.24-8.24 8.24z" style="fill:#fff"/></g></svg>