<svg xmlns="http://www.w3.org/2000/svg" xml:space="preserve" width="125" height="125"><g style="fill:#fff"><path d="M2.29 59.12h11.37c-.84-.21-1.47-.99-1.47-1.9V1.96C12.2.89 13.08 0 14.16 0h82.18c1.07 0 1.96.89 1.96 1.96v16.66l-3.08.94v-9.48H15.55v46.58h79.67V44.64l1.02-.17a6.56 6.56 0 0 0 1.93-.65l.14-.03V57.2c0 .91-.63 1.68-1.47 1.9h11.89a2.29 2.29 0 1 1 0 4.58H2.29C1.03 63.7 0 62.67 0 61.4c0-1.25 1.03-2.28 2.29-2.28zm76.7-24.02c1.05 1.13 2.22 3.44 1.99 5.44l14.2-2.41c-.53-4.02-1.71-7.71-3.99-10.84-4.6 3.12-7.24 5.06-12.2 7.81zM56.02 46.68c6.64-1.97 13.74 5.08 19.39-.39 1.5-1.45 2.52-3.79 2.39-5.98-.06-.88-.29-1.73-.76-2.48-.21-.33-.46-.64-.75-.95-3.62-3.69-9.23-2.23-12.92.6-3.39 2.61-5.82 6.49-7.35 9.2zm37.06-19.75c2.14 3.39 3.49 6.91 3.98 10.58L120.13 25c1.91-.86 3.13-1.74 2.64-4.24-.38-.82-.9-1.37-1.56-1.65-.65-.28-1.43-.28-2.35 0zm-70.7-6.25h66.25c.39 0 .74.14 1.01.38-.79.2-1.55.54-2.25 1.06l-.14.11c-3.17 2.15-.98.65-1.81 1.22l-.5.35h-61v16.13h28.69a55.79 55.79 0 0 0-1.92 3.1H22.38c-.86 0-1.55-.7-1.55-1.55V22.23c0-.85.69-1.55 1.55-1.55zm57.6-3.61c-.86 0-1.55-.69-1.55-1.55 0-.86.7-1.55 1.55-1.55h6.25c.86 0 1.55.69 1.55 1.55 0 .86-.69 1.55-1.55 1.55zm-15.44 0c-.86 0-1.55-.69-1.55-1.55 0-.86.7-1.55 1.55-1.55h6.25c.86 0 1.55.69 1.55 1.55 0 .86-.7 1.55-1.55 1.55zm-15.45 0c-.86 0-1.55-.69-1.55-1.55 0-.86.69-1.55 1.55-1.55h6.25c.86 0 1.55.69 1.55 1.55 0 .86-.69 1.55-1.55 1.55zM25.1 4.71c.86 0 1.56.7 1.56 1.56 0 .86-.7 1.56-1.56 1.56-.86 0-1.56-.7-1.56-1.56 0-.86.71-1.56 1.56-1.56zm5.28 0c.86 0 1.55.7 1.55 1.56 0 .86-.7 1.56-1.55 1.56-.85 0-1.56-.7-1.56-1.56 0-.86.7-1.56 1.56-1.56zm-10.55 0c.86 0 1.56.7 1.56 1.56 0 .86-.7 1.56-1.56 1.56-.86 0-1.56-.7-1.56-1.56 0-.86.7-1.56 1.56-1.56zm32.45 55.27h6.45c.61 0 1.1.5 1.1 1.1 0 .61-.5 1.1-1.1 1.1h-6.45c-.61 0-1.1-.5-1.1-1.1 0-.62.49-1.1 1.1-1.1z" style="fill:#fff;fill-rule:evenodd;clip-rule:evenodd" transform="translate(.947 28.996)"/></g></svg>