<svg xmlns="http://www.w3.org/2000/svg" viewBox="0 0 800 800"><defs><mask id="a" maskUnits="userSpaceOnUse"><circle style="isolation:auto;mix-blend-mode:normal" cx="400" cy="652.362" r="400" color="#000" overflow="visible" fill="#fff" stroke-width="12.801"/></mask></defs><path d="M106.512 237.496l6.493 360c157.642 6.905 352.234 6.797 93.059 3.401l490.397 4.578V237.496z" style="isolation:auto;mix-blend-mode:normal" color="#000" overflow="visible" fill="none" stroke="#8080ff" stroke-width="15.908"/><path transform="matrix(1.2427 0 0 1.2427 -95.595 -382.106)" mask="url(#a)" d="M162.635 498.592v296.112h474.73V498.592h-474.73zm6.943 7.47h1.75L334.94 646.648 171.33 787.232h-1.752v-281.17zm459.291 0h1.553v281.17h-1.555L468.96 646.649l-66.243 58.236L628.869 506.06zm-448.946.041h440.154l-217.56 191.27-222.594-191.27zm158.702 144.74l63.937 54.937 62.493-54.937L620.19 787.232H179.894l158.73-136.389z" style="isolation:auto;mix-blend-mode:normal" color="#000" overflow="visible" fill="none" stroke="#fff" stroke-width="12.801"/></svg>