<?xml version="1.0" encoding="UTF-8" standalone="no"?>
<svg
   xmlns:dc="http://purl.org/dc/elements/1.1/"
   xmlns:cc="http://creativecommons.org/ns#"
   xmlns:rdf="http://www.w3.org/1999/02/22-rdf-syntax-ns#"
   xmlns:svg="http://www.w3.org/2000/svg"
   xmlns="http://www.w3.org/2000/svg"
   xmlns:sodipodi="http://sodipodi.sourceforge.net/DTD/sodipodi-0.dtd"
   xmlns:inkscape="http://www.inkscape.org/namespaces/inkscape"
   enable-background="new 0 0 512 512"
   height="497"
   id="Layer_1"
   version="1.1"
   viewBox="0 0 511 497"
   width="511"
   xml:space="preserve"
   inkscape:version="0.91 r13725"
   sodipodi:docname="github.svg"><metadata
     id="metadata11"><rdf:RDF><cc:Work
         rdf:about=""><dc:format>image/svg+xml</dc:format><dc:type
           rdf:resource="http://purl.org/dc/dcmitype/StillImage" /><dc:title /></cc:Work></rdf:RDF></metadata><defs
     id="defs9" /><sodipodi:namedview
     pagecolor="#ffffff"
     bordercolor="#666666"
     borderopacity="1"
     objecttolerance="10"
     gridtolerance="10"
     guidetolerance="10"
     inkscape:pageopacity="0"
     inkscape:pageshadow="2"
     inkscape:window-width="1366"
     inkscape:window-height="705"
     id="namedview7"
     showgrid="false"
     inkscape:zoom="5.2149125"
     inkscape:cx="276.03538"
     inkscape:cy="28.454023"
     inkscape:window-x="-8"
     inkscape:window-y="-8"
     inkscape:window-maximized="1"
     inkscape:current-layer="g3" /><g
     id="g3"
     transform="translate(0,-15)"><path
       d="m 301.44645,381.8435 c 56.49011,-6.67101 116.57223,-27.21062 116.57223,-124.78216 0,-27.73266 -9.76588,-50.33324 -25.67166,-67.79608 2.56601,-6.66986 10.77483,-31.83648 -3.096,-66.75196 0,0 -20.54074,-6.67893 -68.80392,25.67052 -20.54071,-5.64278 -43.13337,-9.24383 -64.18707,-9.24383 -21.57573,0 -44.17631,3.60105 -64.20407,9.24383 -48.78634,-32.34945 -69.32592,-25.67052 -69.32592,-25.67052 -13.8618,34.91548 -5.64279,60.0821 -3.07788,66.75196 -15.92277,17.46173 -25.679603,40.06342 -25.679603,67.79608 0,97.57154 60.082113,118.11115 116.572203,124.78216 -7.18398,6.17386 -13.86176,17.97467 -16.42781,34.41042 -14.38382,6.15804 -51.87328,17.97471 -74.46479,-21.0537 0,0 -13.35675,-24.13159 -38.515435,-25.67051 0,0 -25.166606,-0.51299 -2.053053,15.39167 0,0 16.940812,7.71395 28.245628,36.97646 0,0 15.40074,48.79428 86.26561,33.38337 l -1.1475,51.07457 c 0,0 -0.40563,4.00752 -6.44195,5.46828 36.31177,0.21683 49.04047,0.22594 143.70473,0.40678 0,0 -4.14764,-1.07241 -5.89241,-2.24427 -0.98886,-0.66415 -2.44068,-2.61028 -2.44068,-2.61028 l -2.98305,-78.79158 c 0.001,-23.63674 -7.71283,-39.0284 -16.9476,-46.74121 z"
       id="path5"
       inkscape:connector-curvature="0"
       style="clip-rule:evenodd;fill:#ffffff;fill-rule:evenodd"
       sodipodi:nodetypes="cscccscccsccccccccccaccc" /></g></svg>