<?xml version="1.0" encoding="UTF-8" standalone="no"?>
<!-- Generator: Adobe Illustrator 16.0.0, SVG Export Plug-In . SVG Version: 6.00 Build 0) -->

<svg
   xmlns:dc="http://purl.org/dc/elements/1.1/"
   xmlns:cc="http://creativecommons.org/ns#"
   xmlns:rdf="http://www.w3.org/1999/02/22-rdf-syntax-ns#"
   xmlns:svg="http://www.w3.org/2000/svg"
   xmlns="http://www.w3.org/2000/svg"
   xmlns:sodipodi="http://sodipodi.sourceforge.net/DTD/sodipodi-0.dtd"
   xmlns:inkscape="http://www.inkscape.org/namespaces/inkscape"
   version="1.1"
   id="Layer_1"
   x="0px"
   y="0px"
   width="19"
   height="19"
   viewBox="0 0 19 19.000001"
   enable-background="new 0 0 95.487 19.022"
   xml:space="preserve"
   inkscape:version="0.91 r13725"
   sodipodi:docname="xbox.svg"><metadata
     id="metadata29"><rdf:RDF><cc:Work
         rdf:about=""><dc:format>image/svg+xml</dc:format><dc:type
           rdf:resource="http://purl.org/dc/dcmitype/StillImage" /><dc:title></dc:title></cc:Work></rdf:RDF></metadata><defs
     id="defs27"><linearGradient
       id="path3990_1_"
       gradientUnits="userSpaceOnUse"
       x1="-1022.4974"
       y1="1131.1968"
       x2="-1026.4528"
       y2="1135.8372"
       gradientTransform="matrix(1.0075,0,0,-1.0008,1054.3262,1153.6565)"><stop
         offset="0"
         style="stop-color:#97CA43"
         id="stop42" /><stop
         offset="1"
         style="stop-color:#97CA43;stop-opacity:0"
         id="stop44" /></linearGradient><linearGradient
       id="path4000_1_"
       gradientUnits="userSpaceOnUse"
       x1="-1022.3898"
       y1="1142.3357"
       x2="-1018.7659"
       y2="1150.379"
       gradientTransform="matrix(1.0075,0,0,-1.0008,1054.1868,1153.6248)"><stop
         offset="0"
         style="stop-color:#97CA43"
         id="stop51" /><stop
         offset="1"
         style="stop-color:#97CA43;stop-opacity:0"
         id="stop53" /></linearGradient><linearGradient
       id="path4031_1_"
       gradientUnits="userSpaceOnUse"
       x1="1745.9749"
       y1="1130.484"
       x2="1742.0197"
       y2="1135.1241"
       gradientTransform="matrix(-1.0042,0,0,-1.0017,1777.4087,1153.8944)"><stop
         offset="0"
         style="stop-color:#97CA43"
         id="stop62" /><stop
         offset="1"
         style="stop-color:#97CA43;stop-opacity:0"
         id="stop64" /></linearGradient><linearGradient
       id="path4039_1_"
       gradientUnits="userSpaceOnUse"
       x1="1746.1101"
       y1="1141.9645"
       x2="1749.2062"
       y2="1147.0082"
       gradientTransform="matrix(-1.0042,0,0,-1.0017,1777.5476,1153.8627)"><stop
         offset="0"
         style="stop-color:#97CA43"
         id="stop71" /><stop
         offset="1"
         style="stop-color:#97CA43;stop-opacity:0"
         id="stop73" /></linearGradient></defs><sodipodi:namedview
     pagecolor="#ffffff"
     bordercolor="#666666"
     borderopacity="1"
     objecttolerance="10"
     gridtolerance="10"
     guidetolerance="10"
     inkscape:pageopacity="0"
     inkscape:pageshadow="2"
     inkscape:window-width="1366"
     inkscape:window-height="705"
     id="namedview25"
     showgrid="false"
     inkscape:zoom="6.032235"
     inkscape:cx="37.299601"
     inkscape:cy="-6.6995639"
     inkscape:window-x="-8"
     inkscape:window-y="-8"
     inkscape:window-maximized="1"
     inkscape:current-layer="Layer_1" /><polygon
     points="22.786,3.956 26.786,9.388 22.4,15.364 23.902,15.364 27.543,10.419 31.187,15.364 32.688,15.364 28.301,9.388 32.303,3.956 30.803,3.956 27.541,8.388 24.282,3.956 "
     id="polygon5"
     style="fill:#ff0000;fill-opacity:0"
     transform="translate(0,-0.02199936)" /><g
     id="g4126"
     transform="matrix(0.56638355,0,0,0.56638355,-8.3720513,19.612531)"
     style="fill:#ffffff"><g
       id="g4010"
       transform="matrix(1.0075011,0,0,1.0008426,-0.23709798,0.02715301)"
       style="fill:#ffffff"><g
         id="g3951"
         style="fill:#ffffff"><g
           id="g3917"
           transform="translate(1.334375,-34.927083)"
           style="fill:#ffffff"><path
             id="path3900"
             sodipodi:nodetypes="ccccc"
             inkscape:connector-curvature="0"
             style="fill:#ffffff"
             d="m 25.967,9.583 c -1.848,2.256 -9.593,11.425 -8.906,17.625 0.478,0.61 1.005,1.181 1.562,1.718 -0.081,-4.745 5.451,-9.825 9.769,-13.658 L 25.967,9.583 Z" /></g><g
           id="g3988"
           transform="translate(1.334375,-34.927083)"
           style="fill:#ffffff"><linearGradient
             id="linearGradient4496"
             gradientUnits="userSpaceOnUse"
             x1="-1022.4974"
             y1="1131.1968"
             x2="-1026.4528"
             y2="1135.8372"
             gradientTransform="matrix(1.0075,0,0,-1.0008,1054.3262,1153.6565)"><stop
               offset="0"
               style="stop-color:#97CA43"
               id="stop4498" /><stop
               offset="1"
               style="stop-color:#97CA43;stop-opacity:0"
               id="stop4500" /></linearGradient><path
             id="path3990"
             sodipodi:nodetypes="ccccc"
             inkscape:connector-curvature="0"
             style="fill:#ffffff"
             d="m 25.967,9.583 c -1.848,2.256 -9.593,11.425 -8.906,17.625 0.478,0.61 1.005,1.181 1.562,1.718 -0.081,-4.745 5.451,-9.825 9.769,-13.658 L 25.967,9.583 Z" /></g><g
           id="g3888"
           transform="translate(1.196189,-34.89572)"
           style="fill:#ffffff"><g
             id="g3876"
             style="fill:#ffffff"><path
               id="path3089"
               sodipodi:nodetypes="cccccccc"
               inkscape:connector-curvature="0"
               style="fill:#ffffff"
               d="m 21.561,2.677 c -0.966,0.584 -1.863,1.272 -2.687,2.031 2.656,0.508 5.32,2.862 6.781,4.812 1.272,2.002 1.963,3.837 2.861,5.731 0.608,-0.519 1.227,-1.046 1.896,-1.587 L 30.408,5.438 C 28.429,4.2 25.158,2.571 21.592,2.677 c -0.008,0.005 -0.024,-0.005 -0.031,0 z" /><linearGradient
               id="linearGradient4506"
               gradientUnits="userSpaceOnUse"
               x1="-1022.3898"
               y1="1142.3357"
               x2="-1018.7659"
               y2="1150.379"
               gradientTransform="matrix(1.0075,0,0,-1.0008,1054.1868,1153.6248)"><stop
                 offset="0"
                 style="stop-color:#97CA43"
                 id="stop4508" /><stop
                 offset="1"
                 style="stop-color:#97CA43;stop-opacity:0"
                 id="stop4510" /></linearGradient><path
               id="path4000"
               sodipodi:nodetypes="cccccccc"
               inkscape:connector-curvature="0"
               style="fill:#ffffff"
               d="m 21.561,2.677 c -0.966,0.584 -1.863,1.272 -2.687,2.031 2.656,0.508 5.32,2.862 6.781,4.812 1.272,2.002 1.963,3.837 2.861,5.731 0.608,-0.519 1.227,-1.046 1.896,-1.587 L 30.408,5.438 C 28.429,4.2 25.158,2.571 21.592,2.677 c -0.008,0.005 -0.024,-0.005 -0.031,0 z" /></g></g></g></g><g
       id="g4021"
       transform="matrix(-1.0041673,0,0,1.0016853,63.252358,0.05430602)"
       style="fill:#ffffff"><g
         id="g4023"
         style="fill:#ffffff"><g
           id="g4025"
           transform="translate(1.334375,-34.927083)"
           style="fill:#ffffff"><path
             id="path4027"
             sodipodi:nodetypes="ccccc"
             inkscape:connector-curvature="0"
             style="fill:#ffffff"
             d="m 25.967,9.583 c -1.848,2.256 -9.593,11.426 -8.906,17.625 0.478,0.609 1.005,1.181 1.562,1.719 -0.081,-4.746 5.451,-9.825 9.769,-13.659 L 25.967,9.583 Z" /></g><g
           id="g4029"
           transform="translate(1.334375,-34.927083)"
           style="fill:#ffffff"><linearGradient
             id="linearGradient4518"
             gradientUnits="userSpaceOnUse"
             x1="1745.9749"
             y1="1130.484"
             x2="1742.0197"
             y2="1135.1241"
             gradientTransform="matrix(-1.0042,0,0,-1.0017,1777.4087,1153.8944)"><stop
               offset="0"
               style="stop-color:#97CA43"
               id="stop4520" /><stop
               offset="1"
               style="stop-color:#97CA43;stop-opacity:0"
               id="stop4522" /></linearGradient><path
             id="path4031"
             sodipodi:nodetypes="ccccc"
             inkscape:connector-curvature="0"
             style="fill:#ffffff"
             d="m 25.967,9.583 c -1.848,2.256 -9.593,11.426 -8.906,17.625 0.478,0.609 1.005,1.181 1.562,1.719 -0.081,-4.746 5.451,-9.825 9.769,-13.659 L 25.967,9.583 Z" /></g><g
           id="g4033"
           transform="translate(1.196189,-34.89572)"
           style="fill:#ffffff"><g
             id="g4035"
             style="fill:#ffffff"><path
               id="path4037"
               sodipodi:nodetypes="cccccccc"
               inkscape:connector-curvature="0"
               style="fill:#ffffff"
               d="m 21.561,2.677 c -0.966,0.585 -1.863,1.272 -2.688,2.031 2.656,0.508 5.321,2.862 6.781,4.812 1.272,2.002 1.964,3.837 2.862,5.732 0.608,-0.519 1.226,-1.047 1.896,-1.587 L 30.408,5.438 C 28.429,4.2 25.158,2.571 21.592,2.677 c -0.007,0.005 -0.024,-0.005 -0.031,0 z" /><linearGradient
               id="linearGradient4528"
               gradientUnits="userSpaceOnUse"
               x1="1746.1101"
               y1="1141.9645"
               x2="1749.2062"
               y2="1147.0082"
               gradientTransform="matrix(-1.0042,0,0,-1.0017,1777.5476,1153.8627)"><stop
                 offset="0"
                 style="stop-color:#97CA43"
                 id="stop4530" /><stop
                 offset="1"
                 style="stop-color:#97CA43;stop-opacity:0"
                 id="stop4532" /></linearGradient><path
               id="path4039"
               sodipodi:nodetypes="cccccccc"
               inkscape:connector-curvature="0"
               style="fill:#ffffff"
               d="m 21.561,2.677 c -0.966,0.585 -1.863,1.272 -2.688,2.031 2.656,0.508 5.321,2.862 6.781,4.812 1.272,2.002 1.964,3.837 2.862,5.732 0.608,-0.519 1.226,-1.047 1.896,-1.587 L 30.408,5.438 C 28.429,4.2 25.158,2.571 21.592,2.677 c -0.007,0.005 -0.024,-0.005 -0.031,0 z" /></g></g></g></g></g></svg>