<svg xmlns="http://www.w3.org/2000/svg" width="640" height="200" viewBox="0 0 640 200"><title>LF-D3R</title><g fill="none" fill-rule="evenodd"><path d="M44.208 167.927L109.174 32.94h23.258L67.454 167.927H44.208zm98.98 0h-23.235l64.693-134.403c-1.77-11.897-11.932-21.03-24.309-21.03H34.662c-13.621 0-24.662.069-24.662.069v47.331h28.27v26.704H10v25.194h28.27v26.714H10v24.317c0 13.642 11.04 24.682 24.662 24.682h125.675c13.622 0 24.674-11.04 24.674-24.682V81.05l-41.823 86.877z" fill="#00b5cc"/><path d="M506.543 57.033c0-5.557.194-12.278 5.553-17.447 4.789-4.61 11.117-5.385 16.1-5.385h63.65c9.408 0 20.89.582 28.758 12.277 6.34 9.22 6.716 19.774 6.716 29.553 0 9.79-.376 20.333-5.758 30.317-3.444 6.527-9.955 13.807-25.291 13.807h-17.275v.958l51.004 47.4h-31.825l-44.094-43.566c-2.68-2.68-6.329-7.462-6.329-11.32v-3.056c0-5.375 4.037-9.22 11.312-9.22h25.302c4.425 0 10.354-.56 13.809-5.957 2.68-4.21 3.079-13.795 3.079-18.405 0-10.543-2.121-15.917-4.8-18.61-4.026-4.028-10.16-4.028-14.186-4.028h-41.027c-2.69 0-4.595.194-6.716 2.111-2.68 2.294-2.68 4.793-2.68 7.497v104.553h-25.302V57.032zM262.044 139.15c0 2.682-.183 5.181 1.748 7.292 1.725 1.917 4.216 1.917 6.547 1.917h29.192c14.02 0 23.24-3.08 28.987-12.472 3.268-5.17 6.73-15.155 6.73-37.977 0-11.525-.96-24.945-9.415-33.777-7.678-8.057-19.778-9.79-28.815-9.79h-34.974v84.807zm-4.788 29.362c-9.986 0-14.019-2.888-14.979-3.652-2.49-1.917-5.575-5.957-5.575-13.43V55.69c0-4.989-.137-21.489-.137-21.489h71.798c18.636 0 31.318 7.11 39.373 15.93 13.071 14.378 13.643 33.572 13.643 49.685 0 14.572-.972 37.611-11.917 52.183-5.37 7.11-16.51 16.513-37.66 16.513h-54.546zm125.425-134.31h67.123c7.27 0 17.998.375 25.461 9.983 5.927 7.656 6.303 18.233 6.303 25.32 0 7.861-.569 17.092-6.303 23.596-2.491 2.875-7.087 6.333-13.766 6.914v.56c6.11.205 11.275 2.886 14.517 5.944 7.281 7.12 7.463 17.652 7.463 24.955 0 11.113-.955 21.291-8.794 29.153-6.883 6.915-14.926 7.885-22.765 7.885h-71.548V148.35h53.766c8.42 0 13.766 0 17.395-2.293 5.54-3.663 5.928-10.178 5.928-15.94 0-6.128-.182-12.072-5.54-16.1-4.017-3.07-10.137-3.263-12.629-3.263h-37.486v-20.15h35.962c4.016 0 10.33-.184 14.152-4.405 3.254-3.64 3.64-9.403 3.64-14.012 0-4.793-.386-10.167-3.64-13.807-3.447-3.64-8.237-4.028-12.06-4.028h-57.179v-20.15z" fill="#000"/></g></svg>